<?xml version="1.0" encoding="UTF-8" standalone="no"?>
<svg
   viewBox="0 0 512 512"
   version="1.1"
   id="svg1"
   sodipodi:docname="opens-new-tab.svg"
   inkscape:version="1.3.2 (091e20e, 2023-11-25, custom)"
   xmlns:inkscape="http://www.inkscape.org/namespaces/inkscape"
   xmlns:sodipodi="http://sodipodi.sourceforge.net/DTD/sodipodi-0.dtd"
   xmlns="http://www.w3.org/2000/svg"
   xmlns:svg="http://www.w3.org/2000/svg">
  <defs
     id="defs1" />
  <sodipodi:namedview
     id="namedview1"
     pagecolor="#ffffff"
     bordercolor="#000000"
     borderopacity="0.25"
     inkscape:showpageshadow="2"
     inkscape:pageopacity="0.0"
     inkscape:pagecheckerboard="0"
     inkscape:deskcolor="#d1d1d1"
     inkscape:zoom="1.7285156"
     inkscape:cx="255.71073"
     inkscape:cy="256"
     inkscape:window-width="2048"
     inkscape:window-height="1081"
     inkscape:window-x="1912"
     inkscape:window-y="451"
     inkscape:window-maximized="1"
     inkscape:current-layer="svg1" />
  <!--!Font Awesome Free 6.6.0 by @fontawesome - https://fontawesome.com License - https://fontawesome.com/license/free Copyright 2024 Fonticons, Inc.-->
  <path
     fill="#00205b"
     d="M320 0c-17.7 0-32 14.3-32 32s14.3 32 32 32l82.7 0L201.4 265.4c-12.5 12.5-12.5 32.8 0 45.3s32.8 12.5 45.3 0L448 109.3l0 82.7c0 17.7 14.3 32 32 32s32-14.3 32-32l0-160c0-17.7-14.3-32-32-32L320 0zM80 32C35.8 32 0 67.8 0 112L0 432c0 44.2 35.8 80 80 80l320 0c44.2 0 80-35.8 80-80l0-112c0-17.7-14.3-32-32-32s-32 14.3-32 32l0 112c0 8.8-7.2 16-16 16L80 448c-8.8 0-16-7.2-16-16l0-320c0-8.8 7.2-16 16-16l112 0c17.7 0 32-14.3 32-32s-14.3-32-32-32L80 32z"
     id="path1" />
  <path
     style="fill:#ffffff;stroke-width:0.578531"
     d="m 68.480434,510.825 c -6.885156,-1.07883 -11.469263,-2.31398 -17.5697,-4.73402 C 25.399681,495.97076 7.1344111,473.93153 1.6284415,446.62599 0.62848422,441.66694 0.57853107,433.3542 0.57853107,271.9096 c 0,-160.9148 0.0527707,-169.76889 1.04076083,-174.623392 C 5.0117377,80.61737 13.061201,66.017393 25.292148,54.348786 36.693914,43.471237 50.349493,36.507411 66.280321,33.446379 c 5.060423,-0.972336 10.00389,-1.048639 67.938889,-1.048639 52.01081,0 62.9661,0.136689 65.37401,0.815669 14.26972,4.023765 24.03457,16.590614 24.00049,30.887383 -0.0187,7.834704 -2.97721,15.296439 -8.37782,21.129743 -3.77591,4.078431 -7.57331,6.643052 -12.91589,8.722906 l -3.86384,1.504186 -61.61356,0.289266 -61.61356,0.289265 -2.314125,1.25064 c -3.306068,1.786724 -6.04116,4.666752 -7.602951,8.005862 l -1.352976,2.89265 -0.0057,163.4766 c -0.0064,184.60051 -0.492862,166.79954 4.696585,171.85423 5.150338,5.01658 -12.195788,4.55688 171.708167,4.55052 l 163.4766,-0.006 2.89265,-1.35297 c 3.33911,-1.56179 6.21914,-4.29689 8.00586,-7.60296 l 1.25064,-2.31412 0.28927,-61.61356 0.28926,-61.61356 1.50419,-3.86384 c 2.07985,-5.34258 4.64448,-9.13998 8.72291,-12.91589 17.49499,-16.19728 45.40852,-7.81382 52.01712,15.62267 1.19763,4.24724 1.20932,124.2872 0.0128,131.61582 -2.64311,16.18908 -9.98016,31.00045 -21.14819,42.69204 -11.45959,11.99683 -24.80614,19.50794 -41.68737,23.46063 l -5.20678,1.21915 -168.64181,0.10646 C 102.84734,511.5888 72.603769,511.47108 68.480434,510.825 Z"
     id="path2" />
  <path
     style="fill:#ffffff;stroke-width:0.578531"
     d="m 216.15295,318.72571 c -8.09983,-2.17854 -16.1645,-8.58323 -20.00102,-15.88414 -5.01054,-9.53507 -4.98327,-19.84354 0.0786,-29.71525 1.9718,-3.84543 8.68511,-10.69392 104.52231,-106.62693 L 403.16802,63.981823 358.94446,63.799788 C 315.17411,63.619616 314.68237,63.60473 310.96045,62.347403 297.28721,57.72833 288.37346,45.709022 288.40629,31.935366 c 0.0202,-8.468227 3.19144,-15.885966 9.47314,-22.1582337 4.65836,-4.6513683 10.45713,-7.8199701 16.22456,-8.8655388 4.79442,-0.86917293 167.10607,-0.86917293 171.90049,0 7.61022,1.3796439 16.2591,7.2328993 20.53618,13.8981565 1.02985,1.604864 2.54932,4.656663 3.37662,6.781776 l 1.50419,3.863841 0.16725,84.176273 c 0.11794,59.359 -0.0207,85.28494 -0.47013,87.93672 -1.99304,11.75856 -12.06286,22.38499 -23.84485,25.16288 -16.18558,3.81614 -32.1049,-5.36266 -37.62114,-21.69169 -1.25734,-3.72192 -1.27222,-4.21361 -1.45239,-47.9856 L 448.01817,108.82881 345.21135,211.5698 C 243.56357,313.15249 242.3556,314.33367 238.06554,316.33997 c -2.38644,1.11605 -5.71858,2.31477 -7.40475,2.66382 -4.16376,0.86192 -10.73781,0.73592 -14.50784,-0.27808 z"
     id="path3" />
</svg>
